<svg xmlns="http://www.w3.org/2000/svg" width="308" height="88" viewBox="0 0 308 88"><g transform="translate(-159 -614)"><rect width="308" height="88" transform="translate(159 614)" fill="#241e1e"/><path d="M4.5,0V-7.251H17.139v-39.7H4.5V-54.2H40.649v7.251H28.015v39.7H40.649V0ZM51.343,0V-54.2H85.217v7.251h-23v15.308H81.628v6.775H62.219V-7.251H87.158V0ZM94.189-.439V-9.52a42.285,42.285,0,0,0,15.784,3.478,13.874,13.874,0,0,0,8.2-2.233,6.6,6.6,0,0,0,3.149-5.528,6.176,6.176,0,0,0-1.026-3.441q-1.063-1.538-5.349-3.881l-10.1-5.5a30.684,30.684,0,0,1-6.885-4.687,14.248,14.248,0,0,1-3-4.431,13.083,13.083,0,0,1-1.025-5.164A13.43,13.43,0,0,1,98.707-51.27q4.774-4.285,15.31-4.285a62.029,62.029,0,0,1,15.109,1.794v8.569A39.413,39.413,0,0,0,114.28-48.34q-4.9,0-7.551,1.63a4.794,4.794,0,0,0-2.651,4.156,5.886,5.886,0,0,0,.7,2.71q.7,1.355,4.285,3.259l11.206,6.006q7.141,3.809,9.814,7.4a13.839,13.839,0,0,1,2.637,8.423,14.988,14.988,0,0,1-2.38,8.185,15.55,15.55,0,0,1-7.123,5.841q-4.742,2.087-12.872,2.087A81.6,81.6,0,0,1,94.189-.439Z" transform="translate(310 686)" fill="#fff"/></g></svg>