<svg xmlns="http://www.w3.org/2000/svg" width="151" height="88" viewBox="0 0 151 88"><g transform="translate(-159 -828)"><rect width="151" height="88" transform="translate(159 828)" fill="#241e1e"/><path d="M2.994,0V-52.754H15.175l7.067,23.7h.107l7.384-23.7H40.991V0H33.078V-40.492h-.107L25.486-14.08H17.43L10.123-40.528h-.107V0ZM65.978,1.319q-10.515,0-15.808-7.5T44.876-26.377q0-12.689,5.275-20.193t15.826-7.5q10.551,0,15.826,7.5T87.08-26.377q0,12.689-5.293,20.193T65.978,1.319ZM65.96-5.7a7.221,7.221,0,0,0,5-1.978,13.39,13.39,0,0,0,3.446-6.113q1.268-4.135,1.268-12.547,0-8.448-1.2-12.511a13.363,13.363,0,0,0-3.41-6.131,7.261,7.261,0,0,0-5.106-2.067A7.19,7.19,0,0,0,60.907-45a13.458,13.458,0,0,0-3.41,6.149q-1.214,4.1-1.214,12.511,0,8.448,1.232,12.565a13.058,13.058,0,0,0,3.428,6.1A7.285,7.285,0,0,0,65.96-5.7ZM103.939,0,88.434-52.754h11l11.7,39.814,12.8-39.814h7.521L114.49,0Z" transform="translate(176 899)" fill="#e8fc68"/></g></svg>