<svg xmlns="http://www.w3.org/2000/svg" width="151" height="88" viewBox="0 0 151 88"><g transform="translate(-159 -719)"><rect width="151" height="88" transform="translate(159 719)" fill="#241e1e"/><path d="M3.707-.428V-9.266A41.158,41.158,0,0,0,19.07-5.881a13.5,13.5,0,0,0,7.984-2.173,6.422,6.422,0,0,0,3.065-5.38,6.012,6.012,0,0,0-1-3.349q-1.034-1.5-5.206-3.777L14.08-25.914a29.865,29.865,0,0,1-6.7-4.562,13.868,13.868,0,0,1-2.923-4.313,12.734,12.734,0,0,1-1-5.026A13.072,13.072,0,0,1,8.1-49.9q4.647-4.17,14.9-4.17a60.375,60.375,0,0,1,14.706,1.747v8.341a38.362,38.362,0,0,0-14.451-3.065q-4.77,0-7.35,1.586a4.666,4.666,0,0,0-2.58,4.046,5.73,5.73,0,0,0,.677,2.638q.677,1.319,4.17,3.172l10.907,5.846q6.951,3.707,9.553,7.2a13.47,13.47,0,0,1,2.566,8.2A14.589,14.589,0,0,1,38.888-6.4,15.135,15.135,0,0,1,31.955-.713Q27.339,1.319,19.426,1.319A79.419,79.419,0,0,1,3.707-.428ZM49.974,0V-52.754H82.945V-45.7H60.56v14.9H79.452V-24.2H60.56V-7.058H84.834V0Zm42.88,0V-52.754h20.032q7.485,0,11.121,3.778a13.174,13.174,0,0,1,3.636,9.517,16.237,16.237,0,0,1-1.1,5.917,18.186,18.186,0,0,1-3.012,5.133,19.142,19.142,0,0,1-5.543,4.277L131.51,0H119.338L107.318-21.565H103.44V0ZM103.44-28.587H105.4a13.67,13.67,0,0,0,5.883-1.212,8.419,8.419,0,0,0,3.928-3.725,11.161,11.161,0,0,0,1.351-5.365,8.707,8.707,0,0,0-.747-3.618,5,5,0,0,0-2.2-2.442q-1.457-.784-6.789-.784H103.44Z" transform="translate(176 790)" fill="#38b2ac"/></g></svg>